<svg id="Calque_1" data-name="Calque 1" xmlns="http://www.w3.org/2000/svg" viewBox="0 0 389.67 349.66">
  <defs>
    <style>
      .cls-1 {
        fill: none;
        stroke: #5c3b17;
        stroke-miterlimit: 10;
        stroke-width: 2px;
      }

      .cls-2 {
        fill: #fff;
      }

      .cls-3 {
        fill: #5c3b17;
      }
    </style>
  </defs>
  <title>logopalc</title>
  <circle class="cls-1" cx="87.68" cy="169.89" r="31.59"/>
  <path class="cls-1" d="M64.78,397.4l51.54-122.69a10,10,0,0,0,.88-2.83,45.63,45.63,0,1,1,15,6.67c-.19-.05-.93,1.48-1.27,2.29l-35.29,84,10.95,4.6a6.05,6.05,0,0,1-4.69,11.16L90.93,376l-2.64,6.3,16.47,6.92a6.05,6.05,0,1,1-4.69,11.16L83.6,393.47l-4.23,10.06a7.23,7.23,0,0,1-9.43,3.85l-1.31-.55A7.23,7.23,0,0,1,64.78,397.4Z" transform="translate(-55.33 -65)"/>
  <g>
    <path class="cls-2" d="M393.11,322.28H317.7V291.13h75.41a16,16,0,0,0,15.94-15.95V224.69a16,16,0,0,0-15.94-15.95H317.7V177.59h75.41a47.15,47.15,0,0,1,47.1,47.1v50.49A47.15,47.15,0,0,1,393.11,322.28Z" transform="translate(-55.33 -65)"/>
    <path class="cls-3" d="M393.11,327.08H312.9V286.34h80.21a11.17,11.17,0,0,0,11.15-11.16V224.69a11.17,11.17,0,0,0-11.15-11.16H312.9V172.79h80.21A52,52,0,0,1,445,224.69v50.49A52,52,0,0,1,393.11,327.08Zm-70.62-9.59h70.62a42.35,42.35,0,0,0,42.3-42.31V224.69a42.35,42.35,0,0,0-42.3-42.31H322.49V204h70.62a20.76,20.76,0,0,1,20.74,20.74v50.49a20.76,20.76,0,0,1-20.74,20.74H322.49Z" transform="translate(-55.33 -65)"/>
  </g>
  <g>
    <path class="cls-2" d="M212.76,141.54H351.65a18.9,18.9,0,0,1,18.9,18.9V404.2a0,0,0,0,1,0,0H193.87a0,0,0,0,1,0,0V160.44A18.9,18.9,0,0,1,212.76,141.54Z" transform="translate(509.09 480.74) rotate(180)"/>
    <path class="cls-3" d="M317.59,409H246.82a57.81,57.81,0,0,1-57.75-57.74V136.75H375.34v214.5A57.8,57.8,0,0,1,317.59,409ZM198.66,146.33V351.25a48.22,48.22,0,0,0,48.16,48.16h70.77a48.22,48.22,0,0,0,48.17-48.16V146.33Z" transform="translate(-55.33 -65)"/>
  </g>
  <path class="cls-3" d="M212.46,276.93a4.8,4.8,0,0,0-4.8,4.8v64.72a4.8,4.8,0,1,0,9.59,0V281.73A4.8,4.8,0,0,0,212.46,276.93Z" transform="translate(-55.33 -65)"/>
  <path class="cls-3" d="M207.66,160.13v85a4.8,4.8,0,0,0,9.59,0v-85Z" transform="translate(-55.33 -65)"/>
  <g>
    <path class="cls-2" d="M368.84,128.92a35.3,35.3,0,0,0-.94-17,35.91,35.91,0,0,0-54.28-19.62,47.51,47.51,0,0,0-87.38,17.74,40.29,40.29,0,0,0-20.11-4.44,40.5,40.5,0,0,0,1.61,81,40.33,40.33,0,0,0,10.66-1.43,10.8,10.8,0,0,1,13.88,10.24V230a20.46,20.46,0,1,0,40.92,0V188.46a11,11,0,0,1,10.95-11H300a11,11,0,0,1,11,11V204.8a20.46,20.46,0,0,0,40.92,0V188.46a11,11,0,0,1,11-11c12.41,0,23.47-8.88,25.12-21.18A24.58,24.58,0,0,0,368.84,128.92Z" transform="translate(-55.33 -65)"/>
    <path class="cls-3" d="M393,152.93c0-.15,0-.29,0-.44,0-.69-.05-1.38-.1-2.06,0-.23,0-.46-.06-.69A29.1,29.1,0,0,0,375.32,126l-.58-.25-.62-.26a40.09,40.09,0,0,0-1.64-14.94,41,41,0,0,0-36.07-28.91A40.54,40.54,0,0,0,315.07,86c-.5-.67-1-1.32-1.57-2-.2-.24-.39-.48-.59-.71-.48-.55-1-1.1-1.46-1.63s-.76-.8-1.15-1.2-.77-.78-1.17-1.16c-.84-.8-1.71-1.57-2.6-2.31l-.29-.23c-.88-.72-1.8-1.41-2.73-2.08l-.39-.27A51.53,51.53,0,0,0,293,68.86h0c-1.2-.48-2.42-.93-3.65-1.32l-.13,0a53.88,53.88,0,0,0-7.5-1.79l-.77-.11c-1-.14-2-.26-3-.35l-1-.08c-1.25-.09-2.5-.15-3.76-.15a52.69,52.69,0,0,0-50.42,38.39c-.3-.11-.62-.18-.93-.28-.83-.28-1.67-.53-2.52-.76l-1.57-.37c-.86-.2-1.72-.37-2.59-.52-.54-.09-1.09-.16-1.63-.23-.85-.11-1.7-.2-2.55-.26-.62,0-1.24-.07-1.86-.09-.47,0-.93-.07-1.39-.07-.3,0-.58,0-.87,0s-.62,0-.92,0c-.51,0-1,.09-1.51.13-.7,0-1.39.1-2.08.18s-1.47.21-2.2.34-1.51.25-2.25.42c-.58.13-1.14.28-1.71.44-.88.23-1.76.46-2.62.75l-1,.35a45.48,45.48,0,0,0-26,23.81c-.07.16-.15.3-.22.45-.42.95-.79,1.92-1.15,2.9-.16.42-.32.83-.46,1.26-.27.81-.5,1.63-.72,2.46-.17.62-.34,1.23-.48,1.86s-.29,1.44-.42,2.17-.25,1.51-.34,2.27-.14,1.38-.19,2.07c0,.46-.11.92-.13,1.38s0,.67,0,1-.05.67-.05,1h.06a45.24,45.24,0,0,0,57.16,43.7,6.35,6.35,0,0,1,5.57,1,5.69,5.69,0,0,1,2.25,4.59V230A25.26,25.26,0,0,0,278,230V188.47a6.18,6.18,0,0,1,6.16-6.17H300a6.17,6.17,0,0,1,6.16,6.17V204.8a25.26,25.26,0,0,0,50.51,0V188.47a6.18,6.18,0,0,1,6.17-6.17c15.09,0,27.94-10.89,29.87-25.34a30.6,30.6,0,0,0,.25-4Zm-9.77,2.76c-1.3,9.71-10.06,17-20.37,17a15.76,15.76,0,0,0-15.75,15.75V204.8a15.67,15.67,0,0,1-31.34,0V188.47A15.76,15.76,0,0,0,300,172.72H284.15a15.76,15.76,0,0,0-15.74,15.75V230a15.67,15.67,0,0,1-31.34,0V195.42a15.25,15.25,0,0,0-6-12.21,15.71,15.71,0,0,0-9.58-3.24,16.47,16.47,0,0,0-4.32.59,35.79,35.79,0,0,1-9.4,1.25,35.64,35.64,0,0,1-35.67-36.5c0-.64.05-1.27.1-1.9s.08-1.07.14-1.6.18-1.24.29-1.85.19-1.09.31-1.63.26-1.06.4-1.58.34-1.23.54-1.83c.12-.38.27-.75.41-1.12.27-.73.54-1.45.85-2.15.08-.18.18-.35.26-.53a36.2,36.2,0,0,1,17.85-17.61l.11-.05c.78-.35,1.59-.65,2.39-.94l.88-.32c.65-.22,1.32-.39,2-.57.48-.13.94-.26,1.42-.37s1.15-.22,1.73-.32,1.18-.2,1.77-.27,1.09-.1,1.63-.14c.72,0,1.44-.1,2.17-.11h.8c1,0,1.92,0,2.87.14l.74.09c.72.08,1.43.18,2.14.31l1.12.2c.72.15,1.44.33,2.15.52l1.16.34c.69.21,1.37.44,2.05.7l1,.42c.62.25,1.24.53,1.84.82.27.13.55.25.82.39a36,36,0,0,1,8,5.61,4.84,4.84,0,0,0,6.45.25h0a4.82,4.82,0,0,0,.12-7.23,44.6,44.6,0,0,0-7-5.34,43,43,0,0,1,41.59-33c1.05,0,2.09,0,3.13.12l.86.08c.77.07,1.53.16,2.29.27l.86.14c.8.13,1.59.29,2.38.46l.61.14A42.73,42.73,0,0,1,292.22,79l.06,0c.89.45,1.76.93,2.61,1.43l.38.23c.74.44,1.45.91,2.15,1.39l.55.38c.63.44,1.24.92,1.85,1.4.21.17.43.33.64.51.52.43,1,.88,1.52,1.34.85.78,1.68,1.59,2.47,2.44l.11.11c.57.62,1.12,1.26,1.66,1.92l.16.19c.54.67,1.06,1.36,1.56,2.06l.12.16c.5.71,1,1.44,1.44,2.18a42.2,42.2,0,0,1,3.81,7.78,4.79,4.79,0,1,0,9.06-3.13,50.22,50.22,0,0,0-2.27-5.26,30.89,30.89,0,0,1,15.64-3,31.37,31.37,0,0,1,27.57,22.13,30.54,30.54,0,0,1,1.29,10.25c-.34,0-.67,0-1,0a29.64,29.64,0,0,0-8.79,1.34,4.8,4.8,0,0,0,2.87,9.15,19.73,19.73,0,0,1,5.92-.91,19.48,19.48,0,0,1,3.85.39l.33.07.23.06c.54.12,1.09.26,1.61.43s.8.28,1.19.44l.51.18a19.91,19.91,0,0,1,10.5,10.51l0,.08c.22.52.41,1.05.59,1.59l.14.5c.12.41.23.83.32,1.24.06.26.11.53.16.79s.11.69.16,1,.07.62.09.94,0,.65.05,1A20.68,20.68,0,0,1,383.19,155.69Z" transform="translate(-55.33 -65)"/>
  </g>
  <g>
    <path class="cls-3" d="M327,126.84a23.17,23.17,0,0,0-29.23,8.55,4.82,4.82,0,0,0,2.61,7.2h0a4.86,4.86,0,0,0,5.51-2.11,13.54,13.54,0,1,1,22,15.8,4.79,4.79,0,1,0,7.43,6.05A23.15,23.15,0,0,0,327,126.84Z" transform="translate(-55.33 -65)"/>
    <path class="cls-3" d="M274.54,94.85a18.25,18.25,0,0,0-15,17.26,4.78,4.78,0,0,0,6.32,4.64,5,5,0,0,0,3.27-4.52,8.62,8.62,0,0,1,16.22-3.49,9.09,9.09,0,0,1,1,3.53,4.93,4.93,0,0,0,3.25,4.5h0a4.78,4.78,0,0,0,6.33-4.59,18.08,18.08,0,0,0-1.14-5.75A18.33,18.33,0,0,0,274.54,94.85Z" transform="translate(-55.33 -65)"/>
    <path class="cls-3" d="M242.36,130.93A26.26,26.26,0,0,0,219.9,144a24.19,24.19,0,0,0-2.91,7.61,26.59,26.59,0,0,0,1.79,16.25,4.84,4.84,0,0,0,7.35,1.9,4.78,4.78,0,0,0,1.42-5.78,16.58,16.58,0,0,1,14.9-23.49h.16a16.6,16.6,0,0,1,16.1,12.67,4.8,4.8,0,0,0,9.36-2.11A26.2,26.2,0,0,0,242.36,130.93Z" transform="translate(-55.33 -65)"/>
  </g>
  <g>
    <path class="cls-2" d="M330.88,278.94h0A13.94,13.94,0,0,1,316.94,265v-7.48a13.94,13.94,0,0,1,13.94-13.94h0a13.94,13.94,0,0,1,13.93,13.94V265A13.94,13.94,0,0,1,330.88,278.94Z" transform="translate(-55.33 -65)"/>
    <path class="cls-3" d="M330.88,283.73A18.75,18.75,0,0,1,312.15,265v-7.48a18.73,18.73,0,0,1,37.46,0V265A18.75,18.75,0,0,1,330.88,283.73Zm0-35.35a9.15,9.15,0,0,0-9.15,9.14V265A9.15,9.15,0,1,0,340,265v-7.48A9.15,9.15,0,0,0,330.88,248.38Z" transform="translate(-55.33 -65)"/>
  </g>
  <rect class="cls-3" y="343.99" width="377.45" height="5.67" rx="0.78" ry="0.78"/>
</svg>
